<svg width="100" height="100" viewBox="0 0 100 100" fill="none" xmlns="http://www.w3.org/2000/svg">
<g clip-path="url(#clip0)">
<path d="M87.3725 73.2C87.6725 73.2 87.8225 73.5 87.8225 74.1C87.8225 74.7 87.6725 75 87.3725 75C84.7725 75 82.7225 74.95 81.2225 74.85L72.2225 74.7L63.5225 74.85C61.9225 74.95 59.8225 75 57.2225 75C56.9225 75 56.7725 74.7 56.7725 74.1C56.7725 73.5 56.9225 73.2 57.2225 73.2C60.3225 73.2 62.4225 72.5 63.5225 71.1C64.6225 69.6 65.1725 66.85 65.1725 62.85V41.25C65.1725 35.85 64.1725 31.85 62.1725 29.25C60.2725 26.65 57.2225 25.35 53.0225 25.35C50.6225 25.35 48.1225 25.85 45.5225 26.85C43.0225 27.85 40.8225 29.2 38.9225 30.9V62.85C38.9225 66.85 39.4725 69.6 40.5725 71.1C41.7725 72.5 43.9225 73.2 47.0225 73.2C47.3225 73.2 47.4725 73.5 47.4725 74.1C47.4725 74.7 47.3225 75 47.0225 75C44.4225 75 42.3725 74.95 40.8725 74.85L31.8725 74.7L23.0225 74.85C21.5225 74.95 19.4725 75 16.8725 75C16.5725 75 16.4225 74.7 16.4225 74.1C16.4225 73.5 16.5725 73.2 16.8725 73.2C19.9725 73.2 22.0725 72.5 23.1725 71.1C24.2725 69.6 24.8225 66.85 24.8225 62.85V34.65C24.8225 31.55 24.4225 29.3 23.6225 27.9C22.9225 26.4 21.7725 25.65 20.1725 25.65C18.4725 25.65 16.0725 26.35 12.9725 27.75H12.6725C12.3725 27.75 12.1225 27.5 11.9225 27C11.8225 26.5 11.8725 26.2 12.0725 26.1L32.9225 15.9C33.5225 15.7 33.8725 15.6 33.9725 15.6C35.0725 15.6 36.1225 16.7 37.1225 18.9C38.1225 21 38.7225 23.9 38.9225 27.6C45.8225 19.4 53.4225 15.3 61.7225 15.3C67.1225 15.3 71.3725 17.05 74.4725 20.55C77.6725 23.95 79.2725 28.45 79.2725 34.05V62.85C79.2725 66.85 79.8225 69.6 80.9225 71.1C82.1225 72.5 84.2725 73.2 87.3725 73.2Z" fill="#5B6AD1"/>
</g>
<defs>
<clipPath id="clip0">
<rect width="100" height="100" fill="white"/>
</clipPath>
</defs>
</svg>
